<svg width="22" height="22" viewBox="0 0 22 22" fill="none" xmlns="http://www.w3.org/2000/svg">
<path d="M12.4668 18.3333H9.53345" stroke="#1D2C4B" stroke-width="1.5" stroke-linecap="round" stroke-linejoin="round"/>
<path fill-rule="evenodd" clip-rule="evenodd" d="M15.5833 9.19616V9.16683V9.16683C15.5833 6.63591 13.5308 4.5835 10.9999 4.5835V4.5835C8.469 4.5835 6.41659 6.63591 6.41659 9.16683V9.16683V9.19616V11.4622C6.41659 11.7592 6.24884 12.0296 5.98392 12.1625L5.52284 12.3926C4.94717 12.6813 4.58325 13.2698 4.58325 13.9133V13.9133C4.58325 14.852 5.34409 15.6128 6.28275 15.6128H15.7171C16.6558 15.6128 17.4166 14.852 17.4166 13.9133V13.9133C17.4166 13.2698 17.0527 12.6813 16.477 12.3935L16.0159 12.1634C15.751 12.0296 15.5833 11.7592 15.5833 11.4622V9.19616Z" stroke="#1D2C4B" stroke-width="1.5" stroke-linecap="round" stroke-linejoin="round"/>
</svg>
