<svg width="20" height="16" viewBox="0 0 20 16" fill="none" xmlns="http://www.w3.org/2000/svg">
<path d="M18.3335 5.5L16.1501 6.33333" stroke="#0065FF" stroke-width="1.5" stroke-linecap="round" stroke-linejoin="round"/>
<path d="M3.85841 6.33333L1.66675 5.5" stroke="#0065FF" stroke-width="1.5" stroke-linecap="round" stroke-linejoin="round"/>
<path d="M15.2083 9.66667H13.125" stroke="#0065FF" stroke-width="1.5" stroke-linecap="round" stroke-linejoin="round"/>
<path d="M6.87508 9.66667H4.79175" stroke="#0065FF" stroke-width="1.5" stroke-linecap="round" stroke-linejoin="round"/>
<path d="M16.1493 6.3335L15.4501 2.99016C15.2476 2.02516 14.3968 1.3335 13.4101 1.3335H6.67679C5.70929 1.3335 4.86846 2.00016 4.64846 2.94266L3.85596 6.3335" stroke="#0065FF" stroke-width="1.5" stroke-linecap="round" stroke-linejoin="round"/>
<path fill-rule="evenodd" clip-rule="evenodd" d="M2.70841 14.6668H4.58341C5.27341 14.6668 5.83341 14.1068 5.83341 13.4168V12.5835H14.1667V13.4168C14.1667 14.1068 14.7267 14.6668 15.4167 14.6668H17.2917C17.8667 14.6668 18.3334 14.2002 18.3334 13.6252V8.8335C18.3334 7.45266 17.2142 6.3335 15.8334 6.3335H4.16675C2.78591 6.3335 1.66675 7.45266 1.66675 8.8335V13.6252C1.66675 14.2002 2.13341 14.6668 2.70841 14.6668Z" stroke="#0065FF" stroke-width="1.5" stroke-linecap="round" stroke-linejoin="round"/>
</svg>
