<svg width="18" height="18" viewBox="0 0 18 18" fill="none" xmlns="http://www.w3.org/2000/svg">
<path d="M14.5 2.58333H17.25" stroke="#0065FF" stroke-width="1.5" stroke-linecap="round" stroke-linejoin="round"/>
<path d="M0.75 2.58333H10.8333" stroke="#0065FF" stroke-width="1.5" stroke-linecap="round" stroke-linejoin="round"/>
<path d="M7.16663 8.99984H17.25" stroke="#0065FF" stroke-width="1.5" stroke-linecap="round" stroke-linejoin="round"/>
<path d="M0.75 8.99984H3.5" stroke="#0065FF" stroke-width="1.5" stroke-linecap="round" stroke-linejoin="round"/>
<path d="M14.5 15.4168H17.25" stroke="#0065FF" stroke-width="1.5" stroke-linecap="round" stroke-linejoin="round"/>
<path d="M0.75 15.4168H10.8333" stroke="#0065FF" stroke-width="1.5" stroke-linecap="round" stroke-linejoin="round"/>
<path d="M13.9631 1.28697C14.679 2.00293 14.679 3.16374 13.9631 3.8797C13.2471 4.59566 12.0863 4.59566 11.3703 3.8797C10.6544 3.16374 10.6544 2.00293 11.3703 1.28697C12.0863 0.57101 13.2471 0.57101 13.9631 1.28697" stroke="#0065FF" stroke-width="1.5" stroke-linecap="round" stroke-linejoin="round"/>
<path d="M6.6297 7.70347C7.34566 8.41944 7.34566 9.58024 6.6297 10.2962C5.91374 11.0122 4.75293 11.0122 4.03697 10.2962C3.32101 9.58024 3.32101 8.41944 4.03697 7.70347C4.75293 6.98751 5.91374 6.98751 6.6297 7.70347" stroke="#0065FF" stroke-width="1.5" stroke-linecap="round" stroke-linejoin="round"/>
<path d="M13.9631 14.1205C14.679 14.8364 14.679 15.9972 13.9631 16.7132C13.2471 17.4292 12.0863 17.4292 11.3703 16.7132C10.6544 15.9972 10.6544 14.8364 11.3703 14.1205C12.0863 13.4045 13.2471 13.4045 13.9631 14.1205" stroke="#0065FF" stroke-width="1.5" stroke-linecap="round" stroke-linejoin="round"/>
</svg>
