<svg width="19" height="20" viewBox="0 0 19 20" fill="none" xmlns="http://www.w3.org/2000/svg">
<path d="M8.82807 5.32786C9.50341 5.32786 10.0437 4.78759 10.0437 4.04471C10.0437 3.36937 9.50341 2.8291 8.82807 2.8291C8.08519 2.8291 7.54492 3.36937 7.54492 4.04471C7.54492 4.78759 8.08519 5.32786 8.82807 5.32786Z" fill="#2262CC"/>
<path d="M14.0976 0.871642C10.856 -0.681638 6.80392 -0.0738328 3.89996 2.01972C-0.422206 5.12628 -1.23261 11.4069 1.87395 15.7291C3.7649 18.2279 7.07406 19.3084 10.1131 19.2409C12.4768 19.1733 15.1781 18.4305 17.0691 16.8772L16.7314 16.472C14.6379 18.2279 9.97802 19.0383 7.07406 18.0253C4.1701 17.0122 2.34668 14.5135 1.67134 11.6095C1.13107 8.97571 1.60381 6.34189 3.15709 4.11327C5.58831 0.804108 9.70788 -0.208901 13.2872 1.68205C17.2717 3.64053 18.8925 9.11078 16.0561 12.7576C14.9755 14.0408 12.8144 15.2564 11.1936 14.1083C10.2482 13.4329 10.3157 12.2173 10.3157 11.1368L10.4508 6.47696H6.73639V7.28736H8.28967C8.22213 8.90818 8.1546 12.0823 8.1546 12.1498C8.1546 13.5005 8.62734 15.6616 12.0716 15.3239C15.3807 15.0538 18.4198 12.4875 18.8925 9.31338C19.4328 5.66655 17.3392 2.42492 14.0976 0.871642Z" fill="#2262CC"/>
</svg>
