<?xml version="1.0" encoding="UTF-8" standalone="no"?>
<svg
   xmlns:dc="http://purl.org/dc/elements/1.1/"
   xmlns:cc="http://creativecommons.org/ns#"
   xmlns:rdf="http://www.w3.org/1999/02/22-rdf-syntax-ns#"
   xmlns:svg="http://www.w3.org/2000/svg"
   xmlns="http://www.w3.org/2000/svg"
   xmlns:sodipodi="http://sodipodi.sourceforge.net/DTD/sodipodi-0.dtd"
   xmlns:inkscape="http://www.inkscape.org/namespaces/inkscape"
   version="1.1"
   width="425.1969"
   height="425.1969"
   id="svg19"
   viewBox="0 0 425.1969 425.1969"
   sodipodi:docname="mercado-livre-seeklogo.com.cdr">
  <metadata
     id="metadata25">
    <rdf:RDF>
      <cc:Work
         rdf:about="">
        <dc:format>image/svg+xml</dc:format>
        <dc:type
           rdf:resource="http://purl.org/dc/dcmitype/StillImage" />
      </cc:Work>
    </rdf:RDF>
  </metadata>
  <defs
     id="defs23" />
  <sodipodi:namedview
     pagecolor="#ffffff"
     bordercolor="#666666"
     borderopacity="1"
     objecttolerance="10"
     gridtolerance="10"
     guidetolerance="10"
     inkscape:pageopacity="0"
     inkscape:pageshadow="2"
     inkscape:window-width="640"
     inkscape:window-height="480"
     id="namedview21" />
  <path
     d="M -0.0417,0.0417 V 425.2385 H 425.1552 V 0.0417 Z"
     style="fill:#ffffff;fill-rule:evenodd"
     id="path2" />
  <g
     id="Layer1000">
    <path
       d="m 116.4703,133.8583 c -8.5688,1.2229 -6.7772,6.9542 -3.7305,12.0199 -17.2989,12.7748 -32.4731,24.886 -39.1283,48.237 -6.8822,24.1469 -0.4931,49.9843 13.3958,69.2426 49.0102,67.9574 203.2007,66.8269 251.4543,-0.2034 12.5206,-17.393 20.3679,-43.5253 12.9467,-69.6955 -4.1211,-14.5324 -16.4999,-30.8119 -26.9822,-38.7369 -3.6158,-2.7337 -8.961,-7.6031 -13.348,-9.2582 2.7153,-8.7076 2.708,-8.3852 -4.661,-11.8662 4.1091,-9.1586 -5.116,-12.4558 -10.6812,-16.5229 -1.7653,-1.29 -3.6029,-2.8291 -5.8683,-4.0298 -6.7886,-3.5983 -9.6611,-0.3462 -13.2687,2.8498 -3.3048,2.9279 -7.0663,6.4318 -9.8817,9.7787 l -26.013,-4.8277 c -33.5888,-4.2224 -52.029,-0.9694 -83.7073,5.4366 -3.459,-2.8082 -6.3763,-6.552 -10.0073,-9.6313 -9.6744,-8.2038 -9.53,-6.6462 -24.9617,3.6624 -7.3581,4.9156 -7.2393,8.2314 -5.5576,13.5449 z"
       style="fill:#001551;fill-rule:evenodd"
       id="path4" />
    <path
       d="m 331.1039,253.2547 c 10.0073,-12.0326 16.2424,-23.0952 17.3734,-39.4048 0.0419,-0.6049 0.0642,-0.9729 -0.0196,-1.5368 -1.0159,-6.8339 -45.6233,0.7958 -51.8896,2.3544 -7.7611,1.9305 -15.2036,3.9125 -22.4309,6.5338 -3.7986,1.3778 -6.9538,2.4315 -10.5625,3.8765 -3.6876,1.4765 -7.3004,3.3657 -10.7078,4.4904 4.1546,-13.8924 4.9144,-14.6724 4.9403,-31.5839 0.0211,-13.6485 -1.2077,-19.7391 3.0718,-32.7329 7.4229,-22.538 7.8524,-11.397 20.6075,-15.5833 7.3044,-2.3974 8.0125,-4.4297 20.5763,-6.3561 3.4845,-0.5342 5.0933,-0.5818 5.587,-3.8013 -3.2728,-1.8658 -8.3588,0.4168 -11.439,1.927 -5.4334,2.6641 -5.5227,-0.4194 -11.0973,-0.7463 -3.9194,2.8668 -5.4294,7.6673 -11.9163,6.6878 1.5162,-2.6723 5.7928,-6.6826 7.836,-8.6742 7.0342,-6.8565 2.9161,-4.8845 2.0503,-10.9082 2.1782,0.5951 3.6389,2.5653 5.2536,3.6091 1.8599,-2.1391 1.1952,-2.0637 2.6894,-4.9386 l 0.9098,3.7065 c 0.9416,2.633 -0.5345,0.682 2.3727,2.1097 l -2.9595,2.8733 c -1.1957,-1.7235 -1.1867,-1.5605 -3.4702,-1.3769 l -1.632,3.0283 c 7.2976,5.6139 15.1214,-2.4843 16.4143,-7.8671 -4.1723,-4.4211 -7.2884,-5.8112 -12.4154,-9.6699 -9.7147,-7.3113 -9.5928,2.3863 -24.7209,15.1097 -17.5464,14.7575 -30.0855,53.7664 -39.836,74.459 -21.5094,45.6472 -8.807,42.5726 25.28,45.0237 37.4594,2.6935 68.9055,-5.7613 72.856,-5.2846 3.9879,0.4813 6.1125,3.3805 7.2786,4.6757 z"
       style="fill:#fdfefd;fill-rule:evenodd"
       id="path6" />
    <path
       d="m 120.2539,129.6555 c 0.7806,1.5504 1.3588,2.4576 2.7214,3.8071 2.0938,2.0736 6.4269,8.8066 13.538,3.4201 -0.7913,-2.8987 -2.1768,-4.9979 -4.9931,-1.9399 -0.1421,-0.1123 -0.3311,-0.4971 -0.3937,-0.3742 l -2.6829,-2.2851 2.5122,-0.8898 0.3588,-5.2214 1.521,2.6757 c 1.0359,1.9989 -0.1078,0.7086 1.6252,2.3505 1.5571,-0.536 3.0612,-2.6729 5.4171,-3.3955 -0.4494,2.3963 -2.1131,2.9319 -1.844,5.7067 0.409,4.2185 10.8544,10.4446 11.6349,13.7803 -6.0455,1.3018 -7.2929,-3.884 -11.725,-6.5414 -5.5585,0.0317 -5.7036,3.4296 -11.04,0.666 -2.3541,-1.2191 -5.1436,-2.3371 -8.0803,-2.5161 -2.7145,-0.1654 -1.4333,-0.5466 -3.4237,0.531 -0.4922,2.8097 1.3495,3.125 4.4537,3.7203 14.1955,2.7213 8.2722,1.8301 21.1938,6.3682 13.5743,4.7675 13.416,-7.3082 21.0261,15.8308 5.8804,17.8804 1.3725,30.5405 3.9946,49.7584 0.9016,6.6064 2.5008,9.1435 3.9819,14.4666 l -20.0785,-8.1395 c -6.8089,-2.5046 -14.2005,-4.5308 -21.7738,-6.4733 -10.3715,-2.6604 -41.3295,-7.3672 -50.6769,-3.2333 -2.5107,6.125 1.6508,17.1976 4.2246,22.7567 5.2873,11.4197 7.9069,12.1965 10.6763,17.4441 7.6493,-4.084 4.9735,-4.5365 17.5483,-1.7471 18.9795,4.2101 44.1654,4.8881 63.366,3.5976 13.4883,-0.9064 32.4286,0.2799 34.2509,-11.146 1.6179,-10.1442 -7.3108,-26.375 -10.7942,-34.5328 -11.846,-27.7423 -20.0656,-53.8175 -39.1359,-73.853 l -17.2879,-16.9356 c -3.0474,-1.9139 -5.4238,0.2306 -7.5855,1.9293 -4.1596,3.269 -10.6156,5.7603 -12.5294,10.4146 z"
       style="fill:#fdfefd;fill-rule:evenodd"
       id="path8" />
    <path
       d="m 96.7211,255.801 c 1.275,3.235 15.8813,14.202 21.1389,17.4492 7.5375,4.6552 16.7455,8.9801 26.2073,12.5651 40.8595,15.4811 92.8935,15.4457 134.0084,1.0549 13.1438,-4.6005 40.9817,-18.2994 48.9136,-29.0344 -1.6471,-7.5882 -9.4994,-2.7725 -26.015,-0.6462 -25.2368,3.2489 -39.7515,2.9169 -65.1314,0.6068 -13.0883,-1.1914 -17.5878,-0.8359 -24.3144,-9.661 l -3.6817,3.9911 c -5.5246,5.0469 -12.1802,4.9292 -19.9642,5.6049 -27.2241,2.3633 -50.906,2.8081 -77.7997,-2.347 -5.4633,-1.0472 -10.263,-3.7401 -13.3618,0.4166 z"
       style="fill:#fee74e;fill-rule:evenodd"
       id="path10" />
    <path
       d="m 161.6564,130.9696 c 6.338,7.9999 9.291,9.2488 15.6647,21.0555 4.3253,8.0124 8.0562,16.9255 11.9814,25.4931 l 16.6611,38.5193 c 1.5258,3.3504 4.4276,12.0257 5.7709,13.6806 4.4215,-12.8713 27.4642,-65.8793 33.8725,-77.8177 6.6388,-12.3678 11.2981,-14.6538 16.1641,-21.9046 -17.5747,-3.0352 -30.9971,-5.8112 -50.2426,-5.7215 -10.3691,0.0483 -42.5094,2.3535 -49.8721,6.6953 z"
       style="fill:#fee74e;fill-rule:evenodd"
       id="path12" />
    <path
       d="m 269.6833,155.5447 c -2.7789,9.9112 -7.1706,16.837 -7.2525,29.2978 -0.0402,6.1327 0.5684,12.0884 0.371,18.3993 -0.1868,5.968 -1.1273,11.3747 -1.4961,17.0538 12.3297,-3.0608 20.3115,-7.7341 40.1397,-11.9077 16.8278,-3.5422 29.0919,-4.0829 46.6393,-2.7479 0.7917,-7.5771 -5.6527,-21.042 -8.8672,-26.2649 -5.3824,-8.7453 -10.4267,-13.3566 -16.6815,-19.4691 -1.1908,-1.1638 -3.0636,-2.6934 -4.6332,-3.9047 -1.7313,-1.3361 -3.452,-2.6248 -5.3851,-3.819 -5.6706,-3.5024 -5.0981,-5.0351 -13.4582,-3.3467 -13.1204,2.6498 -13.6192,7.4481 -29.3762,6.7091 z"
       style="fill:#fee74e;fill-rule:evenodd"
       id="path14" />
    <path
       d="m 77.0895,206.2026 c 20.2767,-0.8386 23.9659,-2.0768 45.7122,2.2676 18.987,3.7931 24.1839,7.4691 38.744,11.7124 -0.6777,-7.82 -1.7964,-15.6733 -1.5316,-23.5122 0.009,-9.0225 1.2122,-14.137 -0.9101,-23.1022 -1.1694,-4.9396 -4.1334,-15.2158 -6.6059,-18.0969 -12.0077,1.3754 -17.0948,-3.6937 -28.0119,-6.4828 -2.2747,-0.5812 -4.9597,-0.979 -6.7953,-0.1672 -1.0371,0.4587 -4.6788,2.9407 -5.6102,3.6033 -9.1586,6.5146 -20.6326,17.223 -26.2471,26.9513 -3.9723,6.8828 -9.013,17.5647 -8.7441,26.8267 z"
       style="fill:#fee74e;fill-rule:evenodd"
       id="path16" />
  </g>
</svg>
