<svg width="24" height="13" viewBox="0 0 24 13" fill="none" xmlns="http://www.w3.org/2000/svg">
<path fill-rule="evenodd" clip-rule="evenodd" d="M4.42716 10.0883C3.12078 10.0883 2.17729 8.99964 2.17729 7.33039C2.17729 5.66113 3.12078 4.57249 4.42716 4.57249C5.73353 4.57249 6.67702 5.73371 6.67702 7.33039C6.67702 8.99964 5.80611 10.0883 4.42716 10.0883ZM4.42716 12.193C6.89475 12.193 8.85431 10.1609 8.85431 7.33039C8.85431 4.57249 7.03991 2.46777 4.42716 2.46777C1.95956 2.46777 0 4.49991 0 7.33039C0.0725763 10.1609 1.88699 12.193 4.42716 12.193Z" fill="#6E0AD6"/>
<path fill-rule="evenodd" clip-rule="evenodd" d="M10.6687 8.49143H14.8781C15.1684 8.49143 15.3136 8.34628 15.3136 8.05597V6.67702C15.3136 6.38672 15.1684 6.24157 14.8781 6.24157H12.0476V0.435458C12.0476 0.145153 11.9025 0 11.6122 0H10.2332C9.94293 0 9.79778 0.145153 9.79778 0.435458V7.54794C9.7252 8.20113 10.0881 8.49143 10.6687 8.49143Z" fill="#8CE563"/>
<path fill-rule="evenodd" clip-rule="evenodd" d="M16.4022 12.0479L18.9423 9.07225L21.4099 12.0479C21.6277 12.3382 21.918 12.3382 22.1357 12.1205L23.1518 11.2495C23.3695 11.0318 23.4421 10.7415 23.2243 10.5238L20.3939 7.33041L22.8615 4.49993C23.0792 4.2822 23.0792 3.99189 22.7889 3.77416L21.8454 2.90325C21.6277 2.68552 21.3373 2.68552 21.1196 2.97582L18.8698 5.66115L16.5473 2.97582C16.3296 2.75809 16.0393 2.68552 15.8215 2.90325L14.8781 3.77416C14.6603 3.99189 14.5877 4.2822 14.8781 4.49993L17.4182 7.33041L14.6603 10.4512C14.4426 10.7415 14.4426 10.9592 14.7329 11.177L15.6764 12.0479C15.8941 12.3382 16.1844 12.3382 16.4022 12.0479Z" fill="#F28000"/>
</svg>
