<svg width="19" height="20" viewBox="0 0 19 20" fill="none" xmlns="http://www.w3.org/2000/svg">
<path d="M13.7219 5.27819C13.8199 5.37619 13.8199 5.53419 13.7219 5.63219C13.6239 5.73019 13.4659 5.73019 13.3679 5.63219C13.2699 5.53419 13.2699 5.37619 13.3679 5.27819C13.4659 5.18119 13.6239 5.18119 13.7219 5.27819" stroke="#1D2C4B" stroke-width="1.5" stroke-linecap="round" stroke-linejoin="round"/>
<path fill-rule="evenodd" clip-rule="evenodd" d="M11.512 1H15.897C17.059 1 18 1.941 18 3.102V7.487C18 8.045 17.778 8.579 17.384 8.974L8.97399 17.384C8.15299 18.205 6.82199 18.205 6.00099 17.384L1.61599 12.999C0.794994 12.178 0.794994 10.847 1.61599 10.026L10.026 1.616C10.42 1.222 10.955 1 11.512 1Z" stroke="#1D2C4B" stroke-width="1.5" stroke-linecap="round" stroke-linejoin="round"/>
<path d="M12 19H16C17.105 19 18 18.105 18 17V13" stroke="#1D2C4B" stroke-width="1.5" stroke-linecap="round" stroke-linejoin="round"/>
</svg>
