<svg width="28" height="28" viewBox="0 0 28 28" fill="none" xmlns="http://www.w3.org/2000/svg">
<path fill-rule="evenodd" clip-rule="evenodd" d="M15.68 5.11133H20.5522C21.8433 5.11133 22.8889 6.15688 22.8889 7.44688V12.3191C22.8889 12.9391 22.6422 13.5324 22.2044 13.9713L12.86 23.3158C11.9477 24.228 10.4689 24.228 9.55663 23.3158L4.68441 18.4435C3.77219 17.5313 3.77219 16.0524 4.68441 15.1402L14.0289 5.79577C14.4666 5.35799 15.0611 5.11133 15.68 5.11133Z" stroke="#0065FF" stroke-width="1.5" stroke-linecap="round" stroke-linejoin="round"/>
<path d="M13.8779 14.1223L14.489 13.5112" stroke="#0065FF" stroke-width="1.5" stroke-linecap="round" stroke-linejoin="round"/>
<path d="M10.189 17.811L9.57788 18.4221" stroke="#0065FF" stroke-width="1.5" stroke-linecap="round" stroke-linejoin="round"/>
<path d="M9.57012 16.3006C9.46901 16.7195 9.56012 17.1706 9.8879 17.4984L10.1946 17.8051L10.5601 18.1706C11.0357 18.6462 11.8068 18.6462 12.2823 18.1706C12.6768 17.7762 12.7535 17.1628 12.4657 16.6839L11.6046 15.2462C11.3179 14.7673 11.3935 14.1539 11.7879 13.7595C12.2635 13.2839 13.0346 13.2839 13.5101 13.7595L13.8757 14.1251L14.1823 14.4317C14.509 14.7584 14.6001 15.2084 14.5012 15.6262" stroke="#0065FF" stroke-width="1.5" stroke-linecap="round" stroke-linejoin="round"/>
<path d="M18.2303 9.76993C18.3913 9.93091 18.3913 10.1919 18.2303 10.3529C18.0694 10.5139 17.8084 10.5139 17.6474 10.3529C17.4864 10.1919 17.4864 9.93091 17.6474 9.76993C17.8084 9.60895 18.0694 9.60895 18.2303 9.76993" stroke="#0065FF" stroke-width="1.5" stroke-linecap="round" stroke-linejoin="round"/>
</svg>
