<svg width="24" height="24" viewBox="0 0 24 24" fill="none" xmlns="http://www.w3.org/2000/svg">
<path d="M12.9401 11.0601L5.87012 18.1301" stroke="#ffffff" stroke-width="1.5" stroke-linecap="round" stroke-linejoin="round"/>
<path d="M6.63295 12.9991L3.16995 12.1811C2.78895 12.0911 2.65495 11.6181 2.93095 11.3411L5.68495 8.58709C5.86995 8.40209 6.12095 8.29609 6.38395 8.29409L9.48895 8.26709" stroke="#ffffff" stroke-width="1.5" stroke-linecap="round" stroke-linejoin="round"/>
<path fill-rule="evenodd" clip-rule="evenodd" d="M19.8791 8.97512L20.6871 5.08712C20.9071 4.02912 19.9711 3.09312 18.9131 3.31312L15.0251 4.12112C13.8801 4.35912 12.8301 4.92612 12.0041 5.75312L8.81407 8.94212C7.59707 10.1591 6.80507 11.7371 6.55507 13.4401L6.54407 13.5131C6.38607 14.6001 6.75007 15.6971 7.52607 16.4741V16.4741C8.30207 17.2501 9.40007 17.6141 10.4871 17.4551L10.5601 17.4441C12.2631 17.1951 13.8411 16.4021 15.0581 15.1851L18.2471 11.9961C19.0741 11.1701 19.6411 10.1201 19.8791 8.97512V8.97512Z" stroke="#ffffff" stroke-width="1.5" stroke-linecap="round" stroke-linejoin="round"/>
<path d="M13.3999 4.71387C15.7109 6.28987 17.7099 8.28887 19.2859 10.5999" stroke="#ffffff" stroke-width="1.5" stroke-linecap="round" stroke-linejoin="round"/>
<path d="M11 17.3672L11.818 20.8302C11.908 21.2112 12.381 21.3452 12.658 21.0692L15.412 18.3152C15.597 18.1302 15.703 17.8792 15.705 17.6162L15.732 14.5112" stroke="#ffffff" stroke-width="1.5" stroke-linecap="round" stroke-linejoin="round"/>
</svg>
