<svg width="18" height="18" viewBox="0 0 18 18" fill="none" xmlns="http://www.w3.org/2000/svg">
<path d="M9 16.5C13.1421 16.5 16.5 13.1421 16.5 9C16.5 4.85786 13.1421 1.5 9 1.5C4.85786 1.5 1.5 4.85786 1.5 9C1.5 13.1421 4.85786 16.5 9 16.5Z" stroke="#0065FF" stroke-width="1.5" stroke-linecap="round" stroke-linejoin="round"/>
<path d="M13.5084 14.8582C13.3584 14.4832 13.1334 14.1498 12.8417 13.8832C12.3417 13.4248 11.7 13.1665 11.0167 13.1665C9.8917 13.1665 8.10839 13.1665 6.97506 13.1665C6.30006 13.1665 5.65005 13.4248 5.15005 13.8832C4.85839 14.1582 4.62507 14.4915 4.4834 14.8582" stroke="#0065FF" stroke-width="1.5" stroke-linecap="round" stroke-linejoin="round"/>
<path d="M8.99992 10.6668C9.92039 10.6668 10.6666 9.92064 10.6666 9.00016C10.6666 8.07969 9.92039 7.3335 8.99992 7.3335C8.07944 7.3335 7.33325 8.07969 7.33325 9.00016C7.33325 9.92064 8.07944 10.6668 8.99992 10.6668Z" stroke="#0065FF" stroke-width="1.5" stroke-miterlimit="10" stroke-linecap="round" stroke-linejoin="round"/>
<path d="M9 1.5V3.16667" stroke="#0065FF" stroke-width="1.5" stroke-miterlimit="10" stroke-linecap="round" stroke-linejoin="round"/>
<path d="M12.7499 2.5083L12.0249 3.7583" stroke="#0065FF" stroke-width="1.5" stroke-miterlimit="10" stroke-linecap="round" stroke-linejoin="round"/>
<path d="M5.25 2.5083L5.975 3.7583" stroke="#0065FF" stroke-width="1.5" stroke-miterlimit="10" stroke-linecap="round" stroke-linejoin="round"/>
<path d="M2.5083 5.25L3.7583 5.975" stroke="#0065FF" stroke-width="1.5" stroke-miterlimit="10" stroke-linecap="round" stroke-linejoin="round"/>
<path d="M16.5 9H15.25" stroke="#0065FF" stroke-width="1.5" stroke-miterlimit="10" stroke-linecap="round" stroke-linejoin="round"/>
<path d="M2.75 9H1.5" stroke="#0065FF" stroke-width="1.5" stroke-miterlimit="10" stroke-linecap="round" stroke-linejoin="round"/>
<path d="M10.4917 8.275L15.4917 5.25" stroke="#0065FF" stroke-width="1.5" stroke-miterlimit="10" stroke-linecap="round" stroke-linejoin="round"/>
</svg>
