<svg width="20" height="20" viewBox="0 0 20 20" fill="none" xmlns="http://www.w3.org/2000/svg">
<path fill-rule="evenodd" clip-rule="evenodd" d="M5.5 4H7.5C8.052 4 8.5 4.448 8.5 5V9C8.5 9.552 8.052 10 7.5 10H5.5C4.948 10 4.5 9.552 4.5 9V5C4.5 4.448 4.948 4 5.5 4Z" stroke="#1D2C4B" stroke-width="1.5" stroke-linecap="round" stroke-linejoin="round"/>
<path fill-rule="evenodd" clip-rule="evenodd" d="M5.5 13H7.5C8.052 13 8.5 13.448 8.5 14V15C8.5 15.552 8.052 16 7.5 16H5.5C4.948 16 4.5 15.552 4.5 15V14C4.5 13.448 4.948 13 5.5 13Z" stroke="#1D2C4B" stroke-width="1.5" stroke-linecap="round" stroke-linejoin="round"/>
<path fill-rule="evenodd" clip-rule="evenodd" d="M14.5 16H12.5C11.948 16 11.5 15.552 11.5 15V11C11.5 10.448 11.948 10 12.5 10H14.5C15.052 10 15.5 10.448 15.5 11V15C15.5 15.552 15.052 16 14.5 16Z" stroke="#1D2C4B" stroke-width="1.5" stroke-linecap="round" stroke-linejoin="round"/>
<path fill-rule="evenodd" clip-rule="evenodd" d="M14.5 7H12.5C11.948 7 11.5 6.552 11.5 6V5C11.5 4.448 11.948 4 12.5 4H14.5C15.052 4 15.5 4.448 15.5 5V6C15.5 6.552 15.052 7 14.5 7Z" stroke="#1D2C4B" stroke-width="1.5" stroke-linecap="round" stroke-linejoin="round"/>
<path fill-rule="evenodd" clip-rule="evenodd" d="M16 19H4C2.343 19 1 17.657 1 16V4C1 2.343 2.343 1 4 1H16C17.657 1 19 2.343 19 4V16C19 17.657 17.657 19 16 19Z" stroke="#1D2C4B" stroke-width="1.5" stroke-linecap="round" stroke-linejoin="round"/>
</svg>
