<svg width="22" height="18" viewBox="0 0 22 18" fill="none" xmlns="http://www.w3.org/2000/svg">
<path d="M20.9999 6L18.3799 7" stroke="#ffffff" stroke-width="1.5" stroke-linecap="round" stroke-linejoin="round"/>
<path d="M3.63 7L1 6" stroke="#ffffff" stroke-width="1.5" stroke-linecap="round" stroke-linejoin="round"/>
<path d="M17.25 11H14.75" stroke="#ffffff" stroke-width="1.5" stroke-linecap="round" stroke-linejoin="round"/>
<path d="M7.25 11H4.75" stroke="#ffffff" stroke-width="1.5" stroke-linecap="round" stroke-linejoin="round"/>
<path d="M18.379 7L17.54 2.988C17.297 1.83 16.276 1 15.092 1H7.01195C5.85095 1 4.84195 1.8 4.57795 2.931L3.62695 7" stroke="#ffffff" stroke-width="1.5" stroke-linecap="round" stroke-linejoin="round"/>
<path fill-rule="evenodd" clip-rule="evenodd" d="M2.25 17H4.5C5.328 17 6 16.328 6 15.5V14.5H16V15.5C16 16.328 16.672 17 17.5 17H19.75C20.44 17 21 16.44 21 15.75V10C21 8.343 19.657 7 18 7H4C2.343 7 1 8.343 1 10V15.75C1 16.44 1.56 17 2.25 17Z" stroke="#ffffff" stroke-width="1.5" stroke-linecap="round" stroke-linejoin="round"/>
</svg>
