<svg width="20" height="20" viewBox="0 0 20 20" fill="none" xmlns="http://www.w3.org/2000/svg">
<path fill-rule="evenodd" clip-rule="evenodd" d="M10 0C4.48276 0 0 4.48276 0 10C0 15.5172 4.48276 20 10 20C15.5172 20 20 15.5172 20 10C20 4.48276 15.5603 0 10 0ZM15.6034 13.4483C15.6034 13.9224 15.2155 14.3103 14.7414 14.2672C14.3103 14.2241 13.9655 13.8362 13.9655 13.4052V11.25C13.9655 10.9914 13.75 10.819 13.5345 10.819H11.2931C11.0345 10.819 10.8621 11.0345 10.8621 11.25V13.9224C10.8621 14.3966 10.4741 14.7845 10 14.7414C9.56897 14.6983 9.22414 14.3103 9.22414 13.8793V11.25C9.22414 10.9914 9.00862 10.819 8.7931 10.819H6.55172C6.2931 10.819 6.12069 11.0345 6.12069 11.25V13.4483C6.12069 13.9224 5.73276 14.3103 5.25862 14.2672C4.82759 14.2241 4.48276 13.8362 4.48276 13.4052V6.55172C4.48276 6.07759 4.87069 5.68966 5.34483 5.73276C5.77586 5.77586 6.12069 6.16379 6.12069 6.59483V8.75C6.12069 9.00862 6.33621 9.18103 6.55172 9.18103H8.7931C9.05172 9.18103 9.22414 8.96552 9.22414 8.75V6.07759C9.22414 5.60345 9.61207 5.21552 10.0862 5.25862C10.5172 5.30172 10.8621 5.68965 10.8621 6.12069V8.75C10.8621 9.00862 11.0776 9.18103 11.2931 9.18103H13.5345C13.7931 9.18103 13.9655 8.96552 13.9655 8.75V6.59483C13.9655 6.16379 14.3103 5.73276 14.7414 5.73276C15.2155 5.68966 15.6034 6.07759 15.6034 6.55172V13.4483Z" fill="#EC0928"/>
</svg>
